<svg xmlns="http://www.w3.org/2000/svg" xmlns:xlink="http://www.w3.org/1999/xlink"><symbol id="home" viewBox="0 0 24 24"><g fill="none">
    <path d="m20 8-6-5.26a3 3 0 0 0-4 0L4 8a3 3 0 0 0-1 2.26V19a3 3 0 0 0 3 3h12a3 3 0 0 0 3-3v-8.75A3 3 0 0 0 20 8Zm-6 12h-4v-5a1 1 0 0 1 1-1h2a1 1 0 0 1 1 1v5Zm5-1a1 1 0 0 1-1 1h-2v-5a3 3 0 0 0-3-3h-2a3 3 0 0 0-3 3v5H6a1 1 0 0 1-1-1v-8.75a1 1 0 0 1 .34-.75l6-5.25a1 1 0 0 1 1.32 0l6 5.25a1 1 0 0 1 .34.75V19Z" fill="currentColor"/>
    <path d="M19 19a1 1 0 0 1-1 1h-2v-5a3 3 0 0 0-3-3h-2a3 3 0 0 0-3 3v5H6a1 1 0 0 1-1-1v-8.75a1 1 0 0 1 .34-.75l6-5.25a1 1 0 0 1 1.32 0l6 5.25a1 1 0 0 1 .34.75V19Z" fill="#currentColor"/>
</g></symbol><symbol id="link" viewBox="0 0 92 62"><g fill="none">
    <path d="M40 52.213a29.836 29.836 0 0 0 15.297 8.21 29.76 29.76 0 0 0 17.26-1.707 29.902 29.902 0 0 0 13.408-11.049A30.089 30.089 0 0 0 91 31a30.089 30.089 0 0 0-5.035-16.667 29.902 29.902 0 0 0-13.407-11.05 29.76 29.76 0 0 0-17.262-1.707A29.837 29.837 0 0 0 40 9.786" stroke="currentColor" stroke-width="2" stroke-linecap="round"/>
    <path d="M5 31h60M58 24l7 7-7 7" stroke="currentColor" stroke-width="2" stroke-linecap="round" stroke-linejoin="round"/>
</g></symbol><symbol id="location" viewBox="0 0 24 24"><g fill="none">
    <circle cx="12" cy="12" r="9" fill="currentColor"/>
</g></symbol><symbol id="logo" viewBox="0 0 152 111"><g fill="none">
    <path fill="#1F1E1E" d="M0 0h111v111H0z"/>
    <path d="M30.178 54.699H20.111v-16.92h-.025v-.025h-3.538v17.369h13.63v-.424ZM33.173 55.123h13.68v-.424H36.711v-8.422h7.924v-.45h-7.924v-7.649h10.142v-.424h-13.68v17.369ZM53.385 55.123V38.178c2.168 0 8.846.822 9.345 10.49v6.455h3.538V37.754H62.73v7.8c-1.072-4.635-4.46-7.8-9.345-7.8h-3.538v17.369h3.538ZM73.539 55.123V38.178c2.168 0 8.846.822 9.344 10.49v6.455h3.539V37.754h-3.539v7.8c-1.071-4.635-4.46-7.8-9.344-7.8H70v17.369h3.539ZM90.154 55.123h3.538V37.754h-3.538v17.369Z" fill="#fff"/>
    <path fill="#BC3324" d="M61 69h91v32H61z"/>
    <path d="M82.248 93.633h.407l2.22-6.456h6.456l2.515 6.456h3.375l-6.116-15.79h-3.42l-5.437 15.79Zm5.663-15.291 3.284 8.45h-6.184l2.9-8.45ZM100.159 77.844v15.789h3.217v-5.46h3.829l3.692 5.437h3.67l-3.897-5.776c2.266-.59 3.987-1.994 3.987-5.143 0-3.941-2.877-5.187-6.229-5.187-3.534 0-4.553 2.65-5.052 5.595v-5.255h-3.217Zm4.101 3.307c.611-2.22 2.197-3.126 3.601-3.24 3.376-.317 3.512 1.835 3.512 4.78 0 4.78-2.537 5.097-4.712 5.097h-3.285s-.09-3.126.884-6.637ZM122.39 78.229l.022 15.404h3.217V78.229h6.501v-.385h-16.242v.385h6.502Z" fill="#fff"/>
</g></symbol><symbol id="star" viewBox="0 0 24 24"><g fill="none">
    <path d="M21.663 8.772a1 1 0 0 1 .33.462 1 1 0 0 1-.32 1.02l-4.13 4 1 5.68a1 1 0 0 1-.99 1.19.93.93 0 0 1-.46-.12l-5.1-2.68-5.12 2.67a1 1 0 0 1-1.45-1.07l1-5.68-4.13-4a1 1 0 0 1-.25-1 1 1 0 0 1 .81-.68l5.69-.84 2.55-5.16a1 1 0 0 1 1.8 0l2.55 5.17 5.69.83a1 1 0 0 1 .53.208Z" fill="currentColor"/>
</g></symbol></svg>